# xmcd
#
# Track frame offsets: 
#        150
#        22615
#        42170
#        62373
#        81610
#        97200
#        118176
#        131718
#        150733
#        167294
#        186188
#        205212
#        224313
#
# Disc length: 3241 seconds
#
# Revision: 1
# Processed by: cddbd v1.5.2PL0 Copyright (c) Steve Scherf et al.
# Submitted via: ExactAudioCopy v1.1
#
DISCID=af0ca70d
DTITLE=Marianna Aydar - Peixes Pássaros Pessoas
DYEAR=2009
DGENRE=Latin
TTITLE0=Florindo
TTITLE1=Palavras Não Falam
TTITLE2=Beleza
TTITLE3=Aqui Em Casa
TTITLE4=Pras Bandas De Lá
TTITLE5=Manhã Azul
TTITLE6=Tá?
TTITLE7=Peixes
TTITLE8=Nada Disso É Pra Você
TTITLE9=Poderoso Rei
TTITLE10=O Samba Me Persegue
TTITLE11=Teu Amor É Falso
TTITLE12=Tudo Que Eu Trago No Bolso
EXTD=
EXTT0=
EXTT1=
EXTT2=
EXTT3=
EXTT4=
EXTT5=
EXTT6=
EXTT7=
EXTT8=
EXTT9=
EXTT10=
EXTT11=
EXTT12=
PLAYORDER=
